<svg xmlns="http://www.w3.org/2000/svg" viewBox="0 0 535 509" fill="none" class="h-[324px] w-[390px] lg:h-[509px] lg:w-[535px] "><path d="M-30.3491 9.95382L-92.8125 1.23438L-92.4564 61.2735M-30.3491 9.95382L-29.9929 69.993M-30.3491 9.95382L32.1137 18.6731L32.4698 78.7123M-29.9929 69.993L-92.4564 61.2735M-29.9929 69.993L32.4698 78.7123M-29.9929 69.993L-29.6365 130.032M-92.4564 61.2735L-92.0999 121.313M32.4698 78.7123L32.8263 138.751M32.4698 78.7123L94.9327 87.4317L95.2889 147.471L32.8263 138.751M94.5787 27.3929L32.1153 18.6734L32.4714 78.7125L94.9348 87.432M94.5787 27.3929L94.9348 87.432M94.5787 27.3929L157.041 36.1119M94.9348 87.432L157.398 96.151M94.9348 87.432L95.2905 147.471M157.041 36.1119L157.398 96.151M157.041 36.1119L219.504 44.8312M157.398 96.151L219.86 104.87M157.398 96.151L157.754 156.191M219.504 44.8312L219.86 104.87M219.504 44.8312L281.968 53.5509M219.86 104.87L282.324 113.59M219.86 104.87L220.216 164.91M281.968 53.5509L282.324 113.59M281.968 53.5509L344.43 62.27M282.324 113.59L344.787 122.309M282.324 113.59L282.679 173.629L220.216 164.91M282.324 113.59L344.788 122.31M282.324 113.59L282.681 173.63M344.43 62.27L344.787 122.309M344.43 62.27L406.894 70.9897L407.25 131.029M344.787 122.309L407.25 131.029M407.25 131.029L344.788 122.31M407.25 131.029L407.607 191.068M407.25 131.029L469.713 139.748M469.359 79.7094L406.896 70.99L407.252 131.029L469.715 139.749M469.359 79.7094L469.715 139.749M469.359 79.7094L531.822 88.4287L532.178 148.468M469.715 139.749L532.178 148.468M532.178 148.468L469.713 139.748M532.178 148.468L532.533 208.507M-29.6365 130.032L-92.0999 121.313M-29.6365 130.032L32.8263 138.751M-29.6365 130.032L-29.2812 190.071M-92.0999 121.313L-91.7446 181.352M32.8263 138.751L-29.638 130.032L-29.2812 190.071M32.8263 138.751L33.1816 198.79M32.8263 138.751L95.2905 147.471M32.8263 138.751L33.1831 198.791L95.6466 207.51M157.754 156.191L95.2905 147.471M157.754 156.191L220.216 164.91M157.754 156.191L158.109 216.229M95.2905 147.471L95.6466 207.51M220.216 164.91L157.752 156.19L158.109 216.229M220.216 164.91L220.572 224.948L158.109 216.229M220.216 164.91L282.681 173.63M220.216 164.91L220.573 224.949M344.788 122.31L345.144 182.349M345.144 182.349L282.681 173.63M345.144 182.349L407.607 191.068M345.144 182.349L345.499 242.388M282.681 173.63L283.037 233.668M407.607 191.068L470.069 199.787M407.607 191.068L345.143 182.348L345.499 242.388M407.607 191.068L407.962 251.107M407.607 191.068L470.071 199.787M407.607 191.068L407.964 251.107L470.427 259.827M469.713 139.748L470.069 199.787M470.069 199.787L532.533 208.507M532.533 208.507L470.071 199.787M532.533 208.507L532.89 268.546L470.427 259.827M-29.2812 190.071L-91.7446 181.352M-29.2812 190.071L33.1816 198.79M-29.2812 190.071L-28.9248 250.111M-91.7446 181.352L-91.3882 241.391M33.1816 198.79L33.5381 258.83M33.1816 198.79L95.6445 207.51L96.0006 267.549M95.6466 207.51L158.109 216.229M95.6466 207.51L96.0022 267.549M158.109 216.229L158.466 276.269M158.109 216.229L220.573 224.949M283.037 233.668L220.573 224.949M283.037 233.668L345.499 242.388M283.037 233.668L283.392 293.707M220.573 224.949L220.93 284.988M345.499 242.388L407.962 251.107M345.499 242.388L345.856 302.427M407.962 251.107L408.318 311.146M407.962 251.107L470.425 259.826L470.781 319.865L408.318 311.146M470.071 199.787L470.427 259.827M470.427 259.827L532.891 268.547L533.247 328.586M470.427 259.827L470.784 319.866M-28.9248 250.111L-91.3882 241.391M-28.9248 250.111L33.5381 258.83M-28.9248 250.111L-28.5694 310.149M-91.3882 241.391L-91.0328 301.43M33.5381 258.83L96.0006 267.549M33.5381 258.83L33.8945 318.869M96.0006 267.549L96.3571 327.588M158.466 276.269L96.0022 267.549M158.466 276.269L220.93 284.988M158.466 276.269L158.822 336.308M96.0022 267.549L96.3587 327.588M220.93 284.988L283.392 293.707M220.93 284.988L221.286 345.028M283.392 293.707L345.856 302.427M283.392 293.707L283.749 353.747M345.856 302.427L408.318 311.146M345.856 302.427L346.211 362.466M408.318 311.146L408.675 371.186M533.247 328.586L470.784 319.866M533.247 328.586L533.603 388.624M470.784 319.866L408.321 311.146L408.677 371.186M470.784 319.866L471.14 379.905M-28.5694 310.149L-91.0328 301.43M-28.5694 310.149L33.8945 318.869M-28.5694 310.149L-28.213 370.189M-91.0328 301.43L-90.6764 361.469M33.8945 318.869L96.3571 327.588M33.8945 318.869L34.2497 378.908M96.3571 327.588L96.7136 387.627L34.2497 378.908M158.822 336.308L96.3587 327.588M158.822 336.308L221.286 345.028M158.822 336.308L159.179 396.347M96.3587 327.588L96.7152 387.628M221.286 345.028L283.749 353.747M221.286 345.028L221.641 405.066M283.749 353.747L346.211 362.466M283.749 353.747L221.284 345.027L221.641 405.066M283.749 353.747L284.104 413.785M346.211 362.466L408.675 371.186M346.211 362.466L346.568 422.505M408.675 371.186L409.031 431.225M471.14 379.905L408.677 371.186M471.14 379.905L533.603 388.624M471.14 379.905L471.495 439.944M408.677 371.186L409.031 431.225M533.603 388.624L533.959 448.664M-28.213 370.189L-90.6764 361.469M-28.213 370.189L34.2497 378.908M-28.213 370.189L-27.8577 430.227M-90.6764 361.469L-90.3211 421.508L-27.8577 430.227M34.2497 378.908L34.6062 438.947L-27.8577 430.227M159.179 396.347L96.7152 387.628M159.179 396.347L221.641 405.066M159.179 396.347L159.534 456.386M96.7152 387.628L34.2518 378.908L34.6079 438.947L97.0714 447.667M96.7152 387.628L97.0714 447.667M221.641 405.066L284.104 413.785M221.641 405.066L221.998 465.106M284.104 413.785L346.568 422.505M284.104 413.785L284.46 473.825M346.568 422.505L409.031 431.225M346.568 422.505L346.924 482.545M409.031 431.225L471.495 439.944M409.031 431.225L409.388 491.264M471.495 439.944L533.959 448.664M471.495 439.944L471.852 499.983M533.959 448.664L534.314 508.703L471.852 499.983M97.0714 447.667L159.534 456.386M159.534 456.386L221.998 465.106M221.998 465.106L284.46 473.825M284.46 473.825L346.924 482.545M346.924 482.545L409.388 491.264M409.388 491.264L471.852 499.983" stroke="url(#paint0_radial_106_1466)" stroke-width="0.5"></path><defs><radialGradient id="paint0_radial_106_1466" cx="0" cy="0" r="1" gradientUnits="userSpaceOnUse" gradientTransform="translate(118.095 202.294) rotate(50.5474) scale(307.315 890.544)"><stop stop-color="white" stop-opacity="0.15"></stop><stop offset="1" stop-color="white" stop-opacity="0"></stop></radialGradient></defs></svg>