<svg xmlns="http://www.w3.org/2000/svg" height="38" viewBox="0 0 66 38" fill="none"><path d="M24.3291 17.5855C24.3291 19.3484 23.6489 20.8962 22.3024 22.1849C20.9628 23.4689 19.3549 24.119 17.5179 24.119C15.7017 24.119 14.103 23.6563 12.7658 22.7401C11.8195 22.0923 11.0931 21.1808 10.5956 20.0171C10.4129 19.5937 10.2625 19.1356 10.1445 18.6451C10.1214 18.5456 10.0982 18.4461 10.0751 18.3443L10.0543 18.2472C9.99874 17.9857 10.1977 17.7382 10.4661 17.7382H13.4691C13.6889 17.7382 13.8832 17.8816 13.948 18.0898C14.0221 18.3281 14.1077 18.5502 14.2002 18.7561C14.8156 20.105 15.8521 20.762 17.349 20.762C18.2235 20.762 18.9685 20.4682 19.6209 19.8644C20.2641 19.2721 20.5764 18.6058 20.5764 17.8284C20.5764 17.6711 20.5672 17.5161 20.544 17.3634C20.4978 17.0256 20.3983 16.7017 20.2479 16.3894C20.1045 16.0909 19.9124 15.8017 19.6718 15.5194C19.0911 14.8369 18.0847 14.4783 16.6827 14.4506L16.604 14.4483C16.375 14.4436 16.1899 14.2562 16.1899 14.0272V11.4522C16.1899 11.2231 16.375 11.0357 16.604 11.0311L16.6827 11.0288C17.7515 11.0103 18.5891 10.7535 19.1744 10.2676C19.7366 9.80027 20.0096 9.21494 20.0096 8.48153C20.0096 7.70879 19.7482 7.07256 19.2091 6.53581C18.67 5.99906 18.0315 5.73762 17.2588 5.73762C16.5277 5.73762 15.9493 5.91345 15.5351 6.26049C15.1002 6.62604 14.7346 7.23914 14.4501 8.08359L14.4316 8.13912C14.3737 8.31033 14.2141 8.426 14.0313 8.426H11.0422C10.79 8.426 10.5956 8.20853 10.6234 7.95866L10.6327 7.86843C10.8316 6.09623 11.5442 4.71965 12.7565 3.77802C13.9457 2.85027 15.3986 2.38062 17.076 2.38062C18.9939 2.38062 20.6111 2.9405 21.8813 4.04639C23.1723 5.16848 23.8247 6.59596 23.8247 8.28719C23.8247 9.94603 23.163 11.3064 21.8558 12.3498C21.6407 12.521 21.6476 12.8542 21.872 13.0162C23.0034 13.8398 23.746 14.8277 24.0954 15.9706C24.1833 16.2552 24.2458 16.5513 24.2828 16.8544C24.3152 17.095 24.3291 17.3379 24.3291 17.5855Z" fill="white"></path><path d="M40.6614 15.8295C40.5064 14.2586 39.7707 12.8473 38.4705 11.6234C37.0036 10.2468 35.2777 9.54813 33.3412 9.54813H33.3274H33.3135L33.0289 9.56433L36.7144 4.16905C36.8695 3.94232 36.8116 3.62999 36.5849 3.47267L34.5628 2.07295C34.3361 1.91563 34.0237 1.97115 33.8641 2.2002L26.9118 12.2365C26.1367 13.354 25.681 14.5686 25.5491 15.8596C25.5213 16.1187 25.5098 16.3825 25.5098 16.6485C25.5098 16.6763 25.5098 16.7064 25.5098 16.7341C25.5306 18.7654 26.2848 20.5238 27.7516 21.9651C29.2369 23.425 31.0531 24.163 33.1446 24.163C35.2407 24.163 37.043 23.4088 38.4982 21.9189C39.9026 20.4821 40.6383 18.7192 40.6869 16.6786C40.6892 16.6092 40.6892 16.5375 40.6892 16.4657C40.6915 16.2506 40.6822 16.0377 40.6614 15.8295ZM35.8006 19.242C35.0556 19.987 34.1788 20.3479 33.1168 20.3479C32.0318 20.3479 31.141 19.987 30.3914 19.249C29.6441 18.5109 29.2809 17.6295 29.2809 16.5583C29.2809 16.5305 29.2809 16.5028 29.2832 16.4773C29.2878 16.1951 29.3226 15.922 29.3873 15.6606C29.547 15.0012 29.894 14.409 30.4354 13.863C31.2104 13.0833 32.0873 12.7062 33.1191 12.7062C34.1487 12.7062 35.0186 13.081 35.7798 13.8491C36.3096 14.3858 36.6497 14.9781 36.807 15.6444C36.8671 15.9012 36.9018 16.1696 36.9088 16.4495C36.9111 16.4866 36.9111 16.5213 36.9111 16.5583C36.9065 17.6202 36.5456 18.4971 35.8006 19.242Z" fill="white"></path><path d="M54.6942 5.47619C53.262 3.42173 51.3672 2.38062 49.0652 2.38062H48.9125C46.7632 2.38062 44.9008 3.38008 43.3761 5.34894C41.8815 7.27847 41.125 9.98536 41.125 13.3933C41.125 14.2585 41.1828 15.0868 41.2985 15.8711C41.3425 16.1672 41.3934 16.4564 41.4535 16.741C41.7983 18.3813 42.4183 19.825 43.3044 21.0558C44.7874 23.1149 46.6845 24.1584 48.9449 24.1584C51.1174 24.1584 52.996 23.1404 54.5299 21.1345C54.8723 20.688 55.1754 20.2044 55.4391 19.6862C55.6427 19.2906 55.8232 18.8718 55.9805 18.4346C56.5219 16.933 56.7926 15.1955 56.7926 13.2359C56.7926 10.0872 56.0869 7.47281 54.6942 5.47619ZM52.3297 17.4189C52.1839 17.7983 52.0127 18.15 51.8184 18.4762C51.8114 18.4901 51.8022 18.5017 51.7952 18.5155C51.0503 19.7464 50.1364 20.3456 49.0051 20.3456C47.8043 20.3456 46.8442 19.7464 46.0691 18.5109C45.8262 18.1222 45.618 17.6919 45.4468 17.2246C45.3311 16.9122 45.2339 16.5791 45.1529 16.232C44.9494 15.3621 44.8476 14.3835 44.8476 13.303C44.8476 11.1167 45.2547 9.34218 46.0576 8.02807C46.821 6.77642 47.765 6.16795 48.9426 6.16795C50.0786 6.16795 51.0086 6.78336 51.7837 8.0512C52.5957 9.3792 53.0076 11.1167 53.0076 13.2105C53.0076 14.8462 52.7808 16.2575 52.3297 17.4189Z" fill="white"></path><path d="M65.9355 22.673C65.9425 23.1751 65.8384 23.6748 65.6602 24.1167C65.4821 24.5609 65.2391 24.9519 64.9708 25.2966C64.7001 25.6414 64.4086 25.9468 64.1032 26.2244C63.7978 26.502 63.4808 26.7542 63.1569 26.9832C61.859 27.9017 60.4824 28.5657 59.092 29.1488C57.6969 29.7272 56.281 30.2084 54.8535 30.6295C53.4237 31.0505 51.9846 31.4114 50.5386 31.7307C46.0989 32.6978 42.3208 33.2392 37.8047 33.4428L41.6337 31.312L38.1957 29.6462C39.5399 29.6092 40.1576 29.5536 41.4995 29.4773C44.3406 29.3153 47.177 29.0701 49.988 28.6791C51.3924 28.4825 52.7898 28.2442 54.1687 27.9526C55.5475 27.6565 56.9126 27.3095 58.2313 26.8676C58.8884 26.6455 59.5385 26.4025 60.1631 26.1272C60.4755 25.9884 60.7832 25.845 61.0793 25.69C61.3801 25.5373 61.667 25.3707 61.9423 25.1972C62.2199 25.0236 62.4814 24.8362 62.7243 24.6396C62.9672 24.4429 63.1893 24.237 63.3767 24.0172C63.5641 23.7998 63.7145 23.573 63.8163 23.3486C63.9204 23.1242 63.9759 22.9044 63.9875 22.68C63.9944 22.4556 63.9528 22.2288 63.8626 21.9905C63.7723 21.7546 63.6312 21.5139 63.4531 21.2803C63.2749 21.0466 63.0597 20.8199 62.8238 20.6047C62.5878 20.3895 62.331 20.1836 62.058 19.9916C61.785 19.7973 61.5027 19.6122 61.2066 19.441C60.9127 19.2651 60.6097 19.1009 60.302 18.9436C59.911 18.7446 59.159 18.4161 58.6292 18.1893C58.5274 18.1454 58.465 18.0413 58.4742 17.9302C58.4881 17.7729 58.6385 17.6665 58.7912 17.7012C60.605 18.1315 63.2795 19.2142 64.4502 20.1767C64.5705 20.2762 64.7625 20.4358 64.9499 20.6116C65.4751 21.1044 65.8268 21.7615 65.917 22.4741C65.9286 22.5412 65.9355 22.6106 65.9355 22.673Z" fill="white"></path><path d="M39.8101 31.349L28.779 26.3239L29.8085 29.6786C28.115 29.6392 26.0813 29.5629 24.4179 29.468C21.5768 29.3014 18.7403 29.0539 15.9316 28.6583C14.5273 28.4593 13.1322 28.221 11.7533 27.9272C10.3767 27.6287 9.01172 27.2817 7.69529 26.8398C7.03824 26.6177 6.39043 26.3748 5.76808 26.0995C5.45806 25.9606 5.15035 25.8172 4.85421 25.6622C4.55576 25.5095 4.26888 25.3452 3.99125 25.1694C3.71593 24.9959 3.4545 24.8108 3.21157 24.6141C2.97096 24.4175 2.74886 24.2116 2.56377 23.9941C2.37868 23.7789 2.2283 23.5545 2.1265 23.3347C2.0247 23.1126 1.96918 22.8975 1.95761 22.6777C1.95298 22.4579 1.99 22.2335 2.08023 21.9998C2.16815 21.7661 2.30696 21.5278 2.48511 21.2965C2.66325 21.0651 2.8761 20.8407 3.11209 20.6255C3.34807 20.4104 3.60257 20.2068 3.87557 20.0147C4.14626 19.8227 4.43083 19.6376 4.72465 19.4641C5.01616 19.2883 5.32156 19.1263 5.62926 18.9667C5.91383 18.8209 6.39043 18.6034 6.70971 18.4577C6.73978 18.4438 6.76523 18.4276 6.79068 18.4091C6.97114 18.3304 7.14697 18.2541 7.3043 18.187C7.40841 18.143 7.47088 18.0389 7.45931 17.9279C7.44774 17.7914 7.33206 17.6919 7.2025 17.6919C7.18399 17.6919 7.16317 17.6942 7.14235 17.6988C7.0151 17.7289 6.88554 17.7613 6.75135 17.7983C4.96295 18.2795 2.57302 19.279 1.48333 20.1744C1.36302 20.2739 1.17099 20.4335 0.983592 20.6093C0.458409 21.0998 0.106745 21.7592 0.016515 22.4718C0.00726065 22.5458 0.00031998 22.6152 0.00031998 22.6777C-0.00662077 23.1797 0.0998042 23.6794 0.275636 24.1213C0.453782 24.5655 0.696708 24.9565 0.965083 25.3013C1.23577 25.646 1.52728 25.9514 1.83268 26.229C2.13576 26.5066 2.45503 26.7588 2.77662 26.9879C4.07454 27.9064 5.45112 28.5704 6.84158 29.1534C8.23667 29.7318 9.65258 30.213 11.0801 30.6341C12.5099 31.0551 13.9489 31.4161 15.3949 31.7353C16.2532 31.9227 17.0861 32.0939 17.9051 32.2489C21.2205 32.832 24.6492 33.1906 27.9923 33.3733C28.6008 33.4081 29.207 33.4358 29.8085 33.4566L28.8553 37.1237L39.8101 31.349Z" fill="white"></path><path d="M59.3928 6.01994C57.7339 6.01994 56.3828 4.66881 56.3828 3.00997C56.3828 1.35113 57.7339 0 59.3928 0C61.0516 0 62.4028 1.35113 62.4028 3.00997C62.4028 4.66881 61.0539 6.01994 59.3928 6.01994ZM59.3928 1.20306C58.3979 1.20306 57.5859 2.01282 57.5859 3.00997C57.5859 4.00481 58.3956 4.81688 59.3928 4.81688C60.3876 4.81688 61.1997 4.00712 61.1997 3.00997C61.1997 2.01282 60.3899 1.20306 59.3928 1.20306Z" fill="white"></path></svg>